<svg width="64" height="64" viewBox="0 0 64 64" fill="none" xmlns="http://www.w3.org/2000/svg">
<rect x="0.5" y="0.5" width="63" height="63" rx="31.5" fill="url(#paint0_linear_3_65)"/>
<rect x="0.5" y="0.5" width="63" height="63" rx="31.5" fill="url(#paint1_linear_3_65)" fill-opacity="0.36"/>
<rect x="0.5" y="0.5" width="63" height="63" rx="31.5" stroke="url(#paint2_linear_3_65)"/>
<path d="M26.3409 31.9304L44.1136 25.6829V36.0701C43.0575 35.4759 41.8017 35.1313 40.4545 35.1313C36.7014 35.1313 33.6591 37.805 33.6591 41.1031C33.6591 44.4012 36.7014 47.075 40.4545 47.075C44.2075 47.075 47.25 44.4012 47.25 41.1031V23.5482C47.25 21.4482 47.25 19.6871 47.0819 18.2839C47.0581 18.0855 47.03 17.8884 46.9989 17.7044C46.837 16.7458 46.5508 15.8515 45.9984 15.1047C45.722 14.7313 45.3793 14.3948 44.9523 14.1055C44.8722 14.0513 44.789 13.9987 44.7029 13.9479L44.6857 13.9377C43.207 13.0729 41.5447 13.1347 39.8321 13.5182C38.1759 13.8891 36.1226 14.6444 33.6049 15.5706L29.2262 17.1811C28.0462 17.6151 27.0462 17.9829 26.2614 18.3638C25.4264 18.769 24.7071 19.247 24.1677 19.9593C23.6283 20.6716 23.4043 21.4392 23.3013 22.2726C23.2045 23.0558 23.2045 24.0084 23.2046 25.1327V39.7451C22.1483 39.1509 20.8927 38.8062 19.5454 38.8062C15.7924 38.8062 12.75 41.48 12.75 44.7781C12.75 48.0763 15.7924 50.75 19.5454 50.75C23.2985 50.75 26.3409 48.0763 26.3409 44.7781V31.9304Z" fill="url(#paint3_linear_3_65)"/>
<defs>
<linearGradient id="paint0_linear_3_65" x1="3" y1="-11" x2="32" y2="64" gradientUnits="userSpaceOnUse">
<stop stop-color="#1997D4"/>
<stop offset="1" stop-color="#006698"/>
</linearGradient>
<linearGradient id="paint1_linear_3_65" x1="32" y1="0" x2="32" y2="64" gradientUnits="userSpaceOnUse">
<stop stop-color="white" stop-opacity="0.28"/>
<stop offset="1" stop-color="white" stop-opacity="0"/>
</linearGradient>
<linearGradient id="paint2_linear_3_65" x1="32" y1="0" x2="32" y2="64" gradientUnits="userSpaceOnUse">
<stop stop-color="#1174A4"/>
<stop offset="1" stop-color="#50A6D0"/>
</linearGradient>
<linearGradient id="paint3_linear_3_65" x1="20.3986" y1="13.25" x2="38.9355" y2="51.0763" gradientUnits="userSpaceOnUse">
<stop stop-color="#EDF9FF"/>
<stop offset="1" stop-color="#82D2F9"/>
</linearGradient>
</defs>
</svg>
