<svg width="64" height="64" viewBox="0 0 64 64" fill="none" xmlns="http://www.w3.org/2000/svg">
<g clip-path="url(#clip0_19_2)">
<rect x="0.5" y="0.5" width="63" height="63" rx="17.5" fill="url(#paint0_linear_19_2)"/>
<rect x="0.5" y="0.5" width="63" height="63" rx="17.5" fill="url(#paint1_linear_19_2)" fill-opacity="0.36"/>
<rect x="0.5" y="0.5" width="63" height="63" rx="17.5" stroke="url(#paint2_linear_19_2)"/>
<path d="M26.4432 32.4212L46.1476 25.3406V37.1127C44.9768 36.4393 43.5845 36.0487 42.0908 36.0487C37.9298 36.0487 34.5568 39.079 34.5568 42.8169C34.5568 46.5547 37.9298 49.585 42.0908 49.585C46.2518 49.585 49.625 46.5547 49.625 42.8169V22.9213C49.625 20.5413 49.625 18.5453 49.4386 16.955C49.4123 16.7303 49.3811 16.5068 49.3466 16.2983C49.1671 15.2119 48.8498 14.1983 48.2374 13.352C47.931 12.9288 47.551 12.5474 47.0776 12.2196C46.9887 12.1581 46.8965 12.0986 46.8011 12.0409L46.782 12.0294C45.1425 11.0493 43.2995 11.1194 41.4008 11.554C39.5646 11.9743 37.2881 12.8303 34.4967 13.88L29.6421 15.7052C28.3338 16.1971 27.2252 16.6139 26.355 17.0456C25.4292 17.5049 24.6318 18.0466 24.0338 18.8538C23.4357 19.6611 23.1874 20.5311 23.0731 21.4756C22.9658 22.3633 22.9659 23.4428 22.9659 24.717V41.2777C21.7949 40.6043 20.4027 40.2137 18.9091 40.2137C14.7481 40.2137 11.375 43.244 11.375 46.9819C11.375 50.7197 14.7481 53.75 18.9091 53.75C23.07 53.75 26.4432 50.7197 26.4432 46.9819V32.4212Z" fill="url(#paint3_linear_19_2)"/>
</g>
<defs>
<linearGradient id="paint0_linear_19_2" x1="3" y1="-11" x2="32" y2="64" gradientUnits="userSpaceOnUse">
<stop stop-color="#1997D4"/>
<stop offset="1" stop-color="#006698"/>
</linearGradient>
<linearGradient id="paint1_linear_19_2" x1="32" y1="0" x2="32" y2="64" gradientUnits="userSpaceOnUse">
<stop stop-color="white" stop-opacity="0.28"/>
<stop offset="1" stop-color="white" stop-opacity="0"/>
</linearGradient>
<linearGradient id="paint2_linear_19_2" x1="32" y1="0" x2="32" y2="64" gradientUnits="userSpaceOnUse">
<stop stop-color="#1174A4"/>
<stop offset="1" stop-color="#50A6D0"/>
</linearGradient>
<linearGradient id="paint3_linear_19_2" x1="19.855" y1="11.25" x2="41.145" y2="53.75" gradientUnits="userSpaceOnUse">
<stop stop-color="#EDF9FF"/>
<stop offset="1" stop-color="#82D2F9"/>
</linearGradient>
<clipPath id="clip0_19_2">
<rect width="64" height="64" fill="white"/>
</clipPath>
</defs>
</svg>
